# xmcd
#
# Track frame offsets: 
#        150
#        27822
#        48970
#        71547
#        97870
#        133042
#        153455
#        182847
#        213902
#        254997
#
# Disc length: 3796 seconds
#
# Revision: 9
# Processed by: cddbd v1.5.2PL0 Copyright (c) Steve Scherf et al.
# Submitted via: ExactAudioCopy v0.95b4
#
DISCID=890ed20a
DTITLE=Chucho Valdes - Solo Piano
DYEAR=1993
DGENRE=Jazz
TTITLE0=Isanusi
TTITLE1=Felia
TTITLE2=Nandy
TTITLE3=Noliu
TTITLE4=Togo
TTITLE5=Blue Yes
TTITLE6=My Foolish Heart
TTITLE7=Bill (Evans)
TTITLE8=When I Fall In Love
TTITLE9=Blues (Untitled)
EXTD=
EXTT0=
EXTT1=
EXTT2=
EXTT3=
EXTT4=
EXTT5=
EXTT6=
EXTT7=
EXTT8=
EXTT9=
PLAYORDER=
